<?xml version="1.0" standalone="no"?>
<!DOCTYPE svg PUBLIC "-//W3C//DTD SVG 20010904//EN"
 "http://www.w3.org/TR/2001/REC-SVG-20010904/DTD/svg10.dtd">
<svg version="1.0" xmlns="http://www.w3.org/2000/svg"
 width="900.000000pt" height="900.000000pt" viewBox="0 0 900.000000 900.000000"
 preserveAspectRatio="xMidYMid meet">
<metadata>
Created by potrace 1.10, written by Peter Selinger 2001-2011
</metadata>
<g transform="translate(0.000000,900.000000) scale(0.100000,-0.100000)"
fill="#000000" stroke="none">
<path d="M5050 8344 c-117 -39 -183 -89 -235 -181 -26 -44 -28 -57 -28 -160
-1 -85 3 -116 14 -130 8 -10 21 -31 29 -47 20 -39 101 -110 158 -137 43 -21
64 -23 267 -29 l220 -5 0 -350 0 -350 -2275 -5 c-1251 -3 -2282 -8 -2290 -12
-8 -5 -42 -12 -75 -17 -56 -8 -195 -54 -240 -79 -11 -6 -27 -13 -35 -17 -80
-32 -245 -167 -332 -272 -34 -40 -100 -141 -114 -173 -3 -8 -12 -28 -19 -45
-42 -95 -69 -183 -84 -271 -15 -84 -15 -3064 0 -3148 17 -97 73 -263 109 -326
72 -123 109 -170 210 -268 65 -63 176 -144 230 -168 8 -3 33 -14 55 -24 52
-24 184 -65 260 -82 48 -10 506 -14 2330 -18 l2270 -5 0 -350 0 -350 -225 -6
c-208 -6 -228 -8 -268 -29 -54 -29 -133 -100 -152 -136 -8 -16 -21 -37 -29
-47 -11 -14 -15 -45 -14 -130 0 -102 3 -116 26 -157 33 -57 96 -123 139 -145
18 -9 60 -25 93 -36 57 -18 99 -19 780 -19 681 0 723 1 780 19 85 27 123 49
170 95 69 70 90 124 90 241 0 85 -4 107 -24 149 -30 61 -92 122 -163 160 -53
29 -53 29 -273 34 -147 3 -222 8 -227 16 -10 14 -10 6298 0 6312 5 8 80 13
227 16 l220 5 53 29 c69 37 134 102 164 162 19 40 23 63 23 147 0 117 -21 171
-90 241 -47 46 -85 68 -170 95 -57 18 -98 19 -785 18 -613 0 -732 -3 -770 -15z
m414 -2090 c15 -6 16 -170 16 -1764 0 -1594 -1 -1758 -16 -1764 -9 -3 -1013
-6 -2232 -6 -2408 0 -2237 -4 -2357 51 -47 21 -125 100 -147 149 -50 109 -48
38 -48 1570 0 1542 -3 1460 51 1575 22 48 100 125 149 147 110 49 -40 46 2347
47 1222 1 2228 -2 2237 -5z"/>
<path d="M1640 5521 c-25 -9 -64 -29 -87 -44 -43 -28 -123 -125 -123 -150 0
-8 -7 -31 -15 -50 -39 -94 5 -245 97 -334 18 -17 58 -44 88 -60 55 -28 57 -28
270 -31 125 -2 219 -7 225 -13 6 -6 12 -223 15 -587 6 -563 6 -578 27 -614 48
-86 118 -146 208 -177 70 -25 142 -27 192 -6 19 8 42 15 50 15 17 0 85 51 126
95 29 32 60 91 73 140 4 17 10 280 13 585 l6 555 220 5 c216 5 221 5 277 33
61 30 168 137 168 167 0 10 7 34 15 53 8 20 15 60 15 90 0 53 -27 148 -49 170
-6 6 -11 16 -11 22 0 13 -64 74 -105 100 -16 11 -52 27 -80 37 -46 17 -104 18
-810 17 -679 -2 -765 -3 -805 -18z"/>
<path d="M7129 6928 c-156 -55 -245 -185 -237 -346 7 -134 79 -241 202 -297
l55 -25 408 0 c430 0 438 -1 543 -48 49 -22 127 -99 149 -147 54 -115 51 -33
51 -1575 0 -1542 3 -1460 -51 -1575 -22 -48 -100 -125 -149 -147 -105 -47
-113 -48 -543 -48 l-408 0 -55 -25 c-73 -33 -134 -92 -170 -162 -26 -52 -29
-68 -29 -153 0 -87 3 -100 31 -155 39 -77 121 -144 209 -174 61 -21 76 -22
487 -19 297 3 441 7 483 16 75 17 207 58 260 82 22 10 47 21 55 24 89 39 235
160 329 271 99 117 199 338 216 478 4 31 11 47 21 47 12 0 14 207 14 1540 0
1333 -2 1540 -14 1540 -10 0 -17 15 -20 48 -8 64 -38 158 -81 257 -7 17 -16
37 -19 45 -11 26 -72 119 -107 163 -86 109 -246 242 -339 283 -8 4 -40 18 -70
32 -30 14 -68 29 -85 33 -16 4 -43 12 -60 17 -106 36 -200 42 -611 41 -381 -1
-413 -2 -465 -21z"/>
</g>
</svg>
